<svg xmlns="http://www.w3.org/2000/svg" xmlns:xlink="http://www.w3.org/1999/xlink" version="1.1" x="0px" y="0px" viewBox="0 0 100 125" enable-background="new 0 0 100 100" xml:space="preserve">
	<g>
		<g>
			<path fill="#ffffff" d="M57.439,57.108c1.445,3.804,2.598,17.61,2.598,17.61c8.162,0.953,16.521,0.97,20.857-3.799    c-0.037-0.057-0.617-11.137-2.281-33.535C77.408,21.244,63.156,1.736,48.943,1.717C34.689,1.699,20.477,21.191,19.272,37.385    C17.61,59.783,17.036,70.863,17,70.92c2.698,3.005,7.322,3.694,21.333,4.175c1.068-9.913,3.344-36.316,7.348-35.021    c0.747,0.244-0.446,1.894-0.87,6.485c-0.348,3.79-1.594,19.875-2.517,30.76c0,0,4.151,0.999,6.653,0.999    c3.281,0,5.746-0.292,7.445-0.446c-0.006-10.371-0.357-14.867-0.184-18.683C56.361,55.8,57.16,56.374,57.439,57.108z"/>
		</g>
		<g>
			<path fill="#ffffff" d="M50.439,81.428c-2.439,0-6.015-0.45-8.763-1.042c0,0,0.287,17.118,0.462,17.208c3.461,1.796,13.471,2.104,16.424-0.46    c0.107-0.093-0.098-16.748-0.098-16.748C54.885,81.371,53.58,81.428,50.439,81.428z"/>
		</g>
	</g>
</svg>