<svg xmlns="http://www.w3.org/2000/svg" xmlns:xlink="http://www.w3.org/1999/xlink" xml:space="preserve" version="1.1" style="shape-rendering:geometricPrecision;text-rendering:geometricPrecision;image-rendering:optimizeQuality;" viewBox="0 0 236 270" x="0px" y="0px" fill-rule="evenodd" clip-rule="evenodd"><defs><style type="text/css">
   
    .fil0 {fill:white}
   
  </style></defs><g><path class="fil0" d="M178 171c-15,-3 -89,-9 -100,-20 14,30 68,29 103,35 10,1 10,8 1,7 -14,-3 -74,-9 -84,-20 17,39 86,21 113,43 1,-12 8,-91 -44,-109 -22,-7 -150,-19 -167,-41 11,46 141,47 165,59 5,3 7,9 -2,7 -21,-7 -137,-21 -153,-45 9,45 133,52 161,60 6,1 12,7 1,6 -20,-3 -130,-20 -150,-41 13,43 139,49 156,53 7,2 12,8 0,6z"/><path class="fil0" d="M219 196c13,-22 27,-57 5,-84 -13,-16 -105,-88 -108,-112 -13,40 86,104 98,124 3,5 1,11 -4,4 -14,-15 -96,-81 -96,-108 -8,22 17,52 43,77 49,10 62,54 62,99zm-71 -100c-18,-19 -35,-39 -37,-51 -4,14 5,31 19,48 6,1 12,2 18,3z"/></g><text x="0" y="231" fill="#000000" font-size="5px" font-weight="bold" font-family="'Helvetica Neue', Helvetica, Arial-Unicode, Arial, Sans-serif">Created by kareemov1000</text><text x="0" y="236" fill="#000000" font-size="5px" font-weight="bold" font-family="'Helvetica Neue', Helvetica, Arial-Unicode, Arial, Sans-serif">from the Noun Project</text></svg>